<svg width="95" height="95" viewBox="0 0 95 95" fill="none" xmlns="http://www.w3.org/2000/svg">
<g id="24 / basic / circle-x">
<path id="icon" fill-rule="evenodd" clip-rule="evenodd" d="M47.5 91.0417C23.4526 91.0417 3.95837 71.5474 3.95837 47.5C3.95837 23.4526 23.4526 3.95837 47.5 3.95837C71.5474 3.95837 91.0417 23.4526 91.0417 47.5C91.0417 71.5474 71.5474 91.0417 47.5 91.0417ZM47.5 83.125C67.1752 83.125 83.125 67.1752 83.125 47.5C83.125 27.8249 67.1752 11.875 47.5 11.875C27.8249 11.875 11.875 27.8249 11.875 47.5C11.875 67.1752 27.8249 83.125 47.5 83.125ZM34.4655 66.1322L47.4999 53.0978L60.5343 66.1322L66.1322 60.5343L53.0978 47.4999L66.1322 34.4655L60.5343 28.8676L47.4999 41.902L34.4655 28.8676L28.8676 34.4655L41.902 47.4999L28.8676 60.5343L34.4655 66.1322Z" fill="#EB5757"/>
</g>
</svg>
